<?xml version="1.0" encoding="utf-8"?>
<svg width="150" height="100" viewBox="0 0 150 100" fill="none" xmlns="http://www.w3.org/2000/svg">
<rect width="150" height="100" fill="#FAF9F7"/>
<rect x="18.25" y="20.25" width="113.5" height="59.5" rx="1.75" fill="#FDFDFD"/>
<rect x="24.0801" y="43.56" width="41.04" height="3.8" rx="0.76" fill="#989898" fill-opacity="0.22"/>
<rect x="24.0801" y="48.88" width="82.08" height="9.12" rx="0.76" fill="#989898" fill-opacity="0.22"/>
<rect x="24.0801" y="59.52" width="65.36" height="3.8" rx="0.76" fill="#989898" fill-opacity="0.22"/>
<rect x="24.0801" y="64.84" width="92.72" height="6.08" rx="0.76" fill="#989898" fill-opacity="0.22"/>
<rect x="24.0801" y="37.48" width="11.4" height="3.04" rx="0.76" fill="#9E90F7" fill-opacity="0.38"/>
<path d="M30.4116 30.6852H29.2004C29.1658 30.4865 29.1021 30.3106 29.0093 30.1573C28.9164 30.0018 28.8009 29.8701 28.6627 29.7622C28.5246 29.6542 28.367 29.5732 28.1899 29.5193C28.015 29.4631 27.8261 29.4351 27.6231 29.4351C27.2626 29.4351 26.943 29.5257 26.6645 29.7071C26.386 29.8863 26.1679 30.1497 26.0103 30.4973C25.8527 30.8428 25.7739 31.2649 25.7739 31.7636C25.7739 32.271 25.8527 32.6985 26.0103 33.0461C26.1701 33.3916 26.3881 33.6528 26.6645 33.8299C26.943 34.0048 27.2615 34.0922 27.6199 34.0922C27.8185 34.0922 28.0042 34.0663 28.177 34.0145C28.3518 33.9605 28.5084 33.8817 28.6466 33.7781C28.7869 33.6744 28.9046 33.547 28.9996 33.3959C29.0967 33.2448 29.1637 33.072 29.2004 32.8777L30.4116 32.8842C30.3663 33.1994 30.268 33.4952 30.1169 33.7716C29.9679 34.048 29.7725 34.2919 29.5307 34.5035C29.2889 34.713 29.006 34.877 28.6822 34.9958C28.3583 35.1124 27.9988 35.1707 27.6037 35.1707C27.0208 35.1707 26.5004 35.0357 26.0427 34.7659C25.585 34.496 25.2244 34.1063 24.961 33.5967C24.6976 33.0872 24.5659 32.4761 24.5659 31.7636C24.5659 31.049 24.6987 30.438 24.9642 29.9306C25.2298 29.421 25.5914 29.0313 26.0492 28.7614C26.5069 28.4915 27.0251 28.3566 27.6037 28.3566C27.9729 28.3566 28.3162 28.4084 28.6336 28.512C28.951 28.6157 29.2338 28.7679 29.4821 28.9687C29.7304 29.1673 29.9345 29.4113 30.0942 29.7006C30.2562 29.9878 30.362 30.316 30.4116 30.6852ZM32.4356 35.1804C32.1204 35.1804 31.8365 35.1243 31.5838 35.012C31.3334 34.8976 31.1347 34.7291 30.9879 34.5068C30.8433 34.2844 30.7709 34.0102 30.7709 33.6841C30.7709 33.4035 30.8228 33.1714 30.9264 32.9878C31.03 32.8043 31.1715 32.6575 31.3507 32.5474C31.5299 32.4373 31.7317 32.3541 31.9563 32.298C32.183 32.2397 32.4172 32.1976 32.6591 32.1717C32.9505 32.1415 33.187 32.1145 33.3683 32.0907C33.5497 32.0648 33.6814 32.026 33.7634 31.9741C33.8476 31.9202 33.8897 31.837 33.8897 31.7248V31.7053C33.8897 31.4614 33.8174 31.2724 33.6728 31.1386C33.5281 31.0047 33.3197 30.9378 33.0477 30.9378C32.7605 30.9378 32.5328 31.0004 32.3643 31.1256C32.1981 31.2509 32.0858 31.3988 32.0275 31.5693L30.9329 31.4139C31.0192 31.1116 31.1617 30.859 31.3604 30.656C31.559 30.4509 31.8019 30.2976 32.0891 30.1961C32.3762 30.0925 32.6936 30.0407 33.0412 30.0407C33.2809 30.0407 33.5195 30.0688 33.757 30.1249C33.9945 30.181 34.2115 30.2739 34.4079 30.4034C34.6044 30.5308 34.762 30.7046 34.8808 30.9248C35.0017 31.1451 35.0621 31.4203 35.0621 31.7507V35.08H33.9351V34.3966H33.8962C33.825 34.5348 33.7246 34.6644 33.595 34.7853C33.4676 34.904 33.3068 35.0001 33.1125 35.0735C32.9203 35.1448 32.6947 35.1804 32.4356 35.1804ZM32.74 34.3189C32.9754 34.3189 33.1794 34.2725 33.3521 34.1797C33.5249 34.0847 33.6576 33.9594 33.7505 33.804C33.8455 33.6485 33.893 33.479 33.893 33.2955V32.7093C33.8563 32.7395 33.7937 32.7676 33.7051 32.7935C33.6188 32.8194 33.5216 32.8421 33.4137 32.8615C33.3057 32.881 33.1988 32.8982 33.093 32.9134C32.9872 32.9285 32.8955 32.9414 32.8178 32.9522C32.6429 32.976 32.4863 33.0148 32.3482 33.0688C32.21 33.1228 32.1009 33.1984 32.0211 33.2955C31.9412 33.3905 31.9012 33.5136 31.9012 33.6647C31.9012 33.8806 31.98 34.0436 32.1376 34.1538C32.2953 34.2639 32.4961 34.3189 32.74 34.3189ZM35.785 35.08V30.1055H36.9218V30.9345H36.9736C37.0643 30.6474 37.2197 30.4261 37.4399 30.2706C37.6623 30.113 37.916 30.0342 38.201 30.0342C38.2658 30.0342 38.3381 30.0374 38.418 30.0439C38.5001 30.0482 38.5681 30.0558 38.622 30.0666V31.1451C38.5724 31.1278 38.4936 31.1127 38.3856 31.0997C38.2798 31.0846 38.1773 31.077 38.078 31.077C37.8642 31.077 37.672 31.1235 37.5015 31.2163C37.3331 31.307 37.2003 31.4333 37.1031 31.5952C37.006 31.7572 36.9574 31.9439 36.9574 32.1555V35.08H35.785ZM40.5861 35.1674C40.1953 35.1674 39.8455 35.067 39.5368 34.8663C39.228 34.6655 38.9841 34.374 38.8049 33.9918C38.6257 33.6097 38.5361 33.1455 38.5361 32.5992C38.5361 32.0465 38.6267 31.5801 38.8081 31.2001C38.9916 30.818 39.2388 30.5297 39.5497 30.3354C39.8607 30.1389 40.2072 30.0407 40.5894 30.0407C40.8808 30.0407 41.1205 30.0903 41.3083 30.1897C41.4962 30.2868 41.6451 30.4045 41.7553 30.5427C41.8654 30.6787 41.9507 30.8072 42.0111 30.9281H42.0597V28.4473H43.2353V35.08H42.0824V34.2963H42.0111C41.9507 34.4172 41.8632 34.5456 41.7488 34.6816C41.6344 34.8155 41.4832 34.9299 41.2954 35.0249C41.1075 35.1199 40.8711 35.1674 40.5861 35.1674ZM40.9132 34.2056C41.1615 34.2056 41.3731 34.1386 41.548 34.0048C41.7229 33.8688 41.8557 33.6798 41.9463 33.438C42.037 33.1962 42.0824 32.9144 42.0824 32.5927C42.0824 32.271 42.037 31.9914 41.9463 31.7539C41.8578 31.5164 41.7261 31.3318 41.5512 31.2001C41.3785 31.0684 41.1658 31.0026 40.9132 31.0026C40.652 31.0026 40.4339 31.0706 40.259 31.2066C40.0841 31.3426 39.9524 31.5305 39.8639 31.7701C39.7754 32.0098 39.7311 32.284 39.7311 32.5927C39.7311 32.9036 39.7754 33.1811 39.8639 33.4251C39.9546 33.6669 40.0874 33.858 40.2622 33.9983C40.4393 34.1365 40.6563 34.2056 40.9132 34.2056Z" fill="black"/>
<rect x="18.25" y="20.25" width="113.5" height="59.5" rx="1.75" stroke="#EDEDED" stroke-width="0.5"/>
</svg>
