<svg width="150" height="100" viewBox="0 0 150 100" fill="none" xmlns="http://www.w3.org/2000/svg">
        <rect width="150" height="100" fill="#FDFDFD"/>
        <rect x="8" y="31" width="122" height="8" rx="1" fill="#989898" fill-opacity="0.22"/>
        <rect x="8" y="41" width="86" height="5" rx="1" fill="#989898" fill-opacity="0.22"/>
        <rect x="8" y="48" width="108" height="12" rx="1" fill="#989898" fill-opacity="0.22"/>
        <rect x="8" y="62" width="54" height="5" rx="1" fill="#989898" fill-opacity="0.22"/>
        <rect x="8" y="23" width="15" height="4" rx="1" fill="#FF6B2C" fill-opacity="0.47"/>
        <path d="M11.8182 20H8.8608V11.2727H11.8778C12.7443 11.2727 13.4886 11.4474 14.1108 11.7969C14.7358 12.1435 15.2159 12.642 15.5511 13.2926C15.8864 13.9432 16.054 14.7216 16.054 15.6278C16.054 16.5369 15.8849 17.3182 15.5469 17.9716C15.2116 18.625 14.7273 19.1264 14.0938 19.4759C13.4631 19.8253 12.7045 20 11.8182 20ZM10.4418 18.6321H11.7415C12.3494 18.6321 12.8565 18.5213 13.2628 18.2997C13.669 18.0753 13.9744 17.7415 14.179 17.2983C14.3835 16.8523 14.4858 16.2955 14.4858 15.6278C14.4858 14.9602 14.3835 14.4062 14.179 13.9659C13.9744 13.5227 13.6719 13.1918 13.2713 12.973C12.8736 12.7514 12.3793 12.6406 11.7884 12.6406H10.4418V18.6321ZM19.7857 20.1278C19.1294 20.1278 18.5626 19.9915 18.0854 19.7188C17.6109 19.4432 17.2459 19.054 16.9902 18.5511C16.7345 18.0455 16.6067 17.4503 16.6067 16.7656C16.6067 16.0923 16.7345 15.5014 16.9902 14.9929C17.2487 14.4815 17.6095 14.0838 18.0726 13.7997C18.5357 13.5128 19.0797 13.3693 19.7047 13.3693C20.1081 13.3693 20.4888 13.4347 20.8467 13.5653C21.2075 13.6932 21.5257 13.892 21.8013 14.1619C22.0797 14.4318 22.2984 14.7756 22.4575 15.1932C22.6166 15.608 22.6962 16.1023 22.6962 16.6761V17.1491H17.3311V16.1094H21.2175C21.2146 15.8139 21.1507 15.5511 21.0257 15.321C20.9007 15.0881 20.726 14.9048 20.5016 14.7713C20.28 14.6378 20.0214 14.571 19.726 14.571C19.4107 14.571 19.1337 14.6477 18.895 14.8011C18.6564 14.9517 18.4703 15.1506 18.3368 15.3977C18.2061 15.642 18.1393 15.9105 18.1365 16.2031V17.1108C18.1365 17.4915 18.2061 17.8182 18.3453 18.0909C18.4845 18.3608 18.6791 18.5682 18.9291 18.7131C19.1791 18.8551 19.4717 18.9261 19.807 18.9261C20.0314 18.9261 20.2345 18.8949 20.4163 18.8324C20.5982 18.767 20.7558 18.6719 20.8893 18.5469C21.0229 18.4219 21.1237 18.267 21.1919 18.0824L22.6322 18.2443C22.5413 18.625 22.368 18.9574 22.1124 19.2415C21.8595 19.5227 21.5357 19.7415 21.1408 19.8977C20.7459 20.0511 20.2942 20.1278 19.7857 20.1278ZM26.7165 13.4545V14.6477H22.8472V13.4545H26.7165ZM23.8146 20V12.8366C23.8146 12.3963 23.9055 12.0298 24.0873 11.7372C24.2719 11.4446 24.5191 11.2259 24.8288 11.081C25.1384 10.9361 25.4822 10.8636 25.86 10.8636C26.1271 10.8636 26.3643 10.8849 26.5717 10.9276C26.779 10.9702 26.9325 11.0085 27.0319 11.0426L26.7251 12.2358C26.6597 12.2159 26.5773 12.196 26.4779 12.1761C26.3785 12.1534 26.2677 12.142 26.1455 12.142C25.8586 12.142 25.6555 12.2116 25.5362 12.3509C25.4197 12.4872 25.3614 12.6832 25.3614 12.9389V20H23.8146ZM28.9855 20.1321C28.5707 20.1321 28.1972 20.0582 27.8648 19.9105C27.5352 19.7599 27.2739 19.5384 27.0807 19.2457C26.8903 18.9531 26.7952 18.5923 26.7952 18.1634C26.7952 17.794 26.8634 17.4886 26.9997 17.2472C27.1361 17.0057 27.3222 16.8125 27.558 16.6676C27.7938 16.5227 28.0594 16.4134 28.3548 16.3395C28.6531 16.2628 28.9614 16.2074 29.2795 16.1733C29.6631 16.1335 29.9741 16.098 30.2128 16.0668C30.4514 16.0327 30.6247 15.9815 30.7327 15.9134C30.8435 15.8423 30.8989 15.733 30.8989 15.5852V15.5597C30.8989 15.2386 30.8037 14.9901 30.6134 14.8139C30.423 14.6378 30.1489 14.5497 29.7909 14.5497C29.4131 14.5497 29.1134 14.6321 28.8918 14.7969C28.673 14.9616 28.5253 15.1562 28.4486 15.3807L27.0082 15.1761C27.1219 14.7784 27.3094 14.446 27.5707 14.179C27.8321 13.9091 28.1517 13.7074 28.5295 13.5739C28.9074 13.4375 29.325 13.3693 29.7824 13.3693C30.0977 13.3693 30.4116 13.4062 30.7241 13.4801C31.0366 13.554 31.3222 13.6761 31.5807 13.8466C31.8392 14.0142 32.0466 14.2429 32.2028 14.5327C32.3619 14.8224 32.4415 15.1847 32.4415 15.6193V20H30.9585V19.1009H30.9074C30.8136 19.2827 30.6815 19.4531 30.5111 19.6122C30.3435 19.7685 30.1318 19.8949 29.8761 19.9915C29.6233 20.0852 29.3264 20.1321 28.9855 20.1321ZM29.3861 18.9986C29.6957 18.9986 29.9642 18.9375 30.1915 18.8153C30.4188 18.6903 30.5935 18.5256 30.7156 18.321C30.8406 18.1165 30.9031 17.8935 30.9031 17.652V16.8807C30.8548 16.9205 30.7724 16.9574 30.656 16.9915C30.5423 17.0256 30.4145 17.0554 30.2724 17.081C30.1304 17.1065 29.9898 17.1293 29.8506 17.1491C29.7114 17.169 29.5906 17.1861 29.4884 17.2003C29.2582 17.2315 29.0523 17.2827 28.8705 17.3537C28.6886 17.4247 28.5452 17.5241 28.4401 17.652C28.3349 17.777 28.2824 17.9389 28.2824 18.1378C28.2824 18.4219 28.3861 18.6364 28.5935 18.7812C28.8009 18.9261 29.0651 18.9986 29.3861 18.9986ZM37.5645 17.2472V13.4545H39.1071V20H37.6114V18.8366H37.5432C37.3955 19.2031 37.1526 19.5028 36.8145 19.7358C36.4793 19.9687 36.0659 20.0852 35.5744 20.0852C35.1455 20.0852 34.7662 19.9901 34.4366 19.7997C34.1099 19.6065 33.8543 19.3267 33.6696 18.9602C33.4849 18.5909 33.3926 18.1449 33.3926 17.6222V13.4545H34.9352V17.3835C34.9352 17.7983 35.0489 18.1278 35.2761 18.3722C35.5034 18.6165 35.8017 18.7386 36.171 18.7386C36.3983 18.7386 36.6185 18.6832 36.8315 18.5724C37.0446 18.4616 37.2193 18.2969 37.3557 18.0781C37.4949 17.8565 37.5645 17.5795 37.5645 17.2472ZM41.636 11.2727V20H40.0934V11.2727H41.636ZM45.8908 13.4545V14.6477H42.128V13.4545H45.8908ZM43.057 11.8864H44.5996V18.0312C44.5996 18.2386 44.6308 18.3977 44.6933 18.5085C44.7587 18.6165 44.8439 18.6903 44.949 18.7301C45.0541 18.7699 45.1706 18.7898 45.2984 18.7898C45.395 18.7898 45.4831 18.7827 45.5626 18.7685C45.645 18.7543 45.7075 18.7415 45.7501 18.7301L46.0101 19.9361C45.9277 19.9645 45.8098 19.9957 45.6564 20.0298C45.5058 20.0639 45.3212 20.0838 45.1024 20.0895C44.7161 20.1009 44.368 20.0426 44.0584 19.9148C43.7487 19.7841 43.503 19.5824 43.3212 19.3097C43.1422 19.0369 43.0541 18.696 43.057 18.2869V11.8864Z" fill="black"/>
        </svg>