<svg width="150" height="100" viewBox="0 0 150 100" fill="none" xmlns="http://www.w3.org/2000/svg">
<g clip-path="url(#clip0_408_1745)">
<rect width="150" height="100" fill="#FDFDFD"/>
<rect x="33" y="35" width="86" height="5" rx="1" fill="#989898" fill-opacity="0.22"/>
<rect x="33" y="42" width="108" height="21" rx="1" fill="#989898" fill-opacity="0.22"/>
<rect x="33" y="65" width="54" height="11" rx="1" fill="#989898" fill-opacity="0.22"/>
<rect x="33" y="27" width="15" height="4" rx="1" fill="#FF6B2C" fill-opacity="0.47"/>
<path d="M33.8608 24V15.2727H39.4517V16.598H35.4418V18.9673H39.0682V20.2926H35.4418V24H33.8608ZM43.9856 21.2472V17.4545H45.5282V24H44.0325V22.8366H43.9643C43.8165 23.2031 43.5737 23.5028 43.2356 23.7358C42.9004 23.9687 42.487 24.0852 41.9955 24.0852C41.5665 24.0852 41.1873 23.9901 40.8577 23.7997C40.531 23.6065 40.2754 23.3267 40.0907 22.9602C39.906 22.5909 39.8137 22.1449 39.8137 21.6222V17.4545H41.3563V21.3835C41.3563 21.7983 41.47 22.1278 41.6972 22.3722C41.9245 22.6165 42.2228 22.7386 42.5921 22.7386C42.8194 22.7386 43.0396 22.6832 43.2526 22.5724C43.4657 22.4616 43.6404 22.2969 43.7768 22.0781C43.916 21.8565 43.9856 21.5795 43.9856 21.2472ZM48.0571 15.2727V24H46.5145V15.2727H48.0571ZM50.586 15.2727V24H49.0434V15.2727H50.586ZM54.017 24V15.2727H57.2898C57.9602 15.2727 58.5227 15.3977 58.9773 15.6477C59.4347 15.8977 59.7798 16.2415 60.0128 16.679C60.2486 17.1136 60.3665 17.608 60.3665 18.1619C60.3665 18.7216 60.2486 19.2187 60.0128 19.6534C59.777 20.0881 59.429 20.4304 58.9688 20.6804C58.5085 20.9276 57.9418 21.0511 57.2685 21.0511H55.0994V19.7514H57.0554C57.4474 19.7514 57.7685 19.6832 58.0185 19.5469C58.2685 19.4105 58.4531 19.223 58.5724 18.9844C58.6946 18.7457 58.7557 18.4716 58.7557 18.1619C58.7557 17.8523 58.6946 17.5795 58.5724 17.3438C58.4531 17.108 58.267 16.9247 58.0142 16.794C57.7642 16.6605 57.4418 16.5938 57.0469 16.5938H55.598V24H54.017ZM62.8379 24.1321C62.4231 24.1321 62.0495 24.0582 61.7171 23.9105C61.3876 23.7599 61.1262 23.5384 60.933 23.2457C60.7427 22.9531 60.6475 22.5923 60.6475 22.1634C60.6475 21.794 60.7157 21.4886 60.8521 21.2472C60.9884 21.0057 61.1745 20.8125 61.4103 20.6676C61.6461 20.5227 61.9117 20.4134 62.2072 20.3395C62.5055 20.2628 62.8137 20.2074 63.1319 20.1733C63.5154 20.1335 63.8265 20.098 64.0651 20.0668C64.3038 20.0327 64.4771 19.9815 64.585 19.9134C64.6958 19.8423 64.7512 19.733 64.7512 19.5852V19.5597C64.7512 19.2386 64.656 18.9901 64.4657 18.8139C64.2754 18.6378 64.0012 18.5497 63.6433 18.5497C63.2654 18.5497 62.9657 18.6321 62.7441 18.7969C62.5254 18.9616 62.3776 19.1562 62.3009 19.3807L60.8606 19.1761C60.9742 18.7784 61.1617 18.446 61.4231 18.179C61.6844 17.9091 62.004 17.7074 62.3819 17.5739C62.7597 17.4375 63.1773 17.3693 63.6347 17.3693C63.9501 17.3693 64.264 17.4062 64.5765 17.4801C64.889 17.554 65.1745 17.6761 65.433 17.8466C65.6915 18.0142 65.8989 18.2429 66.0552 18.5327C66.2143 18.8224 66.2938 19.1847 66.2938 19.6193V24H64.8109V23.1009H64.7597C64.666 23.2827 64.5339 23.4531 64.3634 23.6122C64.1958 23.7685 63.9842 23.8949 63.7285 23.9915C63.4756 24.0852 63.1788 24.1321 62.8379 24.1321ZM63.2384 22.9986C63.5481 22.9986 63.8165 22.9375 64.0438 22.8153C64.2711 22.6903 64.4458 22.5256 64.568 22.321C64.693 22.1165 64.7555 21.8935 64.7555 21.652V20.8807C64.7072 20.9205 64.6248 20.9574 64.5083 20.9915C64.3947 21.0256 64.2668 21.0554 64.1248 21.081C63.9827 21.1065 63.8421 21.1293 63.7029 21.1491C63.5637 21.169 63.443 21.1861 63.3407 21.2003C63.1106 21.2315 62.9046 21.2827 62.7228 21.3537C62.541 21.4247 62.3975 21.5241 62.2924 21.652C62.1873 21.777 62.1347 21.9389 62.1347 22.1378C62.1347 22.4219 62.2384 22.6364 62.4458 22.7812C62.6532 22.9261 62.9174 22.9986 63.2384 22.9986ZM70.0915 26.5909C69.5376 26.5909 69.0617 26.5156 68.664 26.3651C68.2663 26.2173 67.9467 26.0185 67.7052 25.7685C67.4637 25.5185 67.2961 25.2415 67.2023 24.9375L68.5915 24.6009C68.654 24.7287 68.745 24.8551 68.8643 24.9801C68.9836 25.108 69.1441 25.2131 69.3458 25.2955C69.5504 25.3807 69.8075 25.4233 70.1171 25.4233C70.5546 25.4233 70.9168 25.3168 71.2038 25.1037C71.4907 24.8935 71.6342 24.5469 71.6342 24.0639V22.8239H71.5575C71.4779 22.983 71.3614 23.1463 71.208 23.3139C71.0575 23.4815 70.8572 23.6222 70.6072 23.7358C70.36 23.8494 70.0489 23.9062 69.6739 23.9062C69.1711 23.9062 68.7151 23.7884 68.306 23.5526C67.8998 23.3139 67.5759 22.9588 67.3344 22.4872C67.0958 22.0128 66.9765 21.419 66.9765 20.706C66.9765 19.9872 67.0958 19.3807 67.3344 18.8864C67.5759 18.3892 67.9012 18.0128 68.3103 17.7571C68.7194 17.4986 69.1754 17.3693 69.6782 17.3693C70.0617 17.3693 70.3771 17.4347 70.6242 17.5653C70.8742 17.6932 71.0731 17.848 71.2208 18.0298C71.3685 18.2088 71.4808 18.3778 71.5575 18.5369H71.6427V17.4545H73.164V24.1065C73.164 24.6662 73.0305 25.1293 72.7634 25.4957C72.4964 25.8622 72.1313 26.1364 71.6683 26.3182C71.2052 26.5 70.6796 26.5909 70.0915 26.5909ZM70.1043 22.696C70.431 22.696 70.7094 22.6165 70.9396 22.4574C71.1697 22.2983 71.3444 22.0696 71.4637 21.7713C71.583 21.473 71.6427 21.1151 71.6427 20.6974C71.6427 20.2855 71.583 19.9247 71.4637 19.6151C71.3472 19.3054 71.1739 19.0653 70.9438 18.8949C70.7165 18.7216 70.4367 18.6349 70.1043 18.6349C69.7606 18.6349 69.4736 18.7244 69.2435 18.9034C69.0134 19.0824 68.8401 19.3281 68.7236 19.6406C68.6072 19.9503 68.5489 20.3026 68.5489 20.6974C68.5489 21.098 68.6072 21.4489 68.7236 21.75C68.843 22.0483 69.0177 22.2812 69.2478 22.4489C69.4808 22.6136 69.7663 22.696 70.1043 22.696ZM77.0427 24.1278C76.3864 24.1278 75.8197 23.9915 75.3424 23.7188C74.868 23.4432 74.5029 23.054 74.2472 22.5511C73.9915 22.0455 73.8637 21.4503 73.8637 20.7656C73.8637 20.0923 73.9915 19.5014 74.2472 18.9929C74.5058 18.4815 74.8665 18.0838 75.3296 17.7997C75.7927 17.5128 76.3367 17.3693 76.9617 17.3693C77.3651 17.3693 77.7458 17.4347 78.1038 17.5653C78.4646 17.6932 78.7827 17.892 79.0583 18.1619C79.3367 18.4318 79.5555 18.7756 79.7146 19.1932C79.8737 19.608 79.9532 20.1023 79.9532 20.6761V21.1491H74.5881V20.1094H78.4745C78.4717 19.8139 78.4077 19.5511 78.2827 19.321C78.1577 19.0881 77.983 18.9048 77.7586 18.7713C77.537 18.6378 77.2785 18.571 76.983 18.571C76.6677 18.571 76.3907 18.6477 76.1521 18.8011C75.9134 18.9517 75.7273 19.1506 75.5938 19.3977C75.4631 19.642 75.3964 19.9105 75.3935 20.2031V21.1108C75.3935 21.4915 75.4631 21.8182 75.6023 22.0909C75.7415 22.3608 75.9362 22.5682 76.1862 22.7131C76.4362 22.8551 76.7288 22.9261 77.064 22.9261C77.2884 22.9261 77.4915 22.8949 77.6734 22.8324C77.8552 22.767 78.0129 22.6719 78.1464 22.5469C78.2799 22.4219 78.3808 22.267 78.4489 22.0824L79.8893 22.2443C79.7984 22.625 79.6251 22.9574 79.3694 23.2415C79.1165 23.5227 78.7927 23.7415 78.3978 23.8977C78.0029 24.0511 77.5512 24.1278 77.0427 24.1278Z" fill="black"/>
<rect x="3" y="4" width="22" height="5" rx="1" fill="#989898" fill-opacity="0.22"/>
<rect x="3" y="11" width="22" height="21" rx="1" fill="#989898" fill-opacity="0.22"/>
<rect x="3" y="34" width="22" height="11" rx="1" fill="#989898" fill-opacity="0.22"/>
<rect x="0.25" y="0.25" width="27.5" height="99.5" stroke="#EDEDED" stroke-width="0.5"/>
<rect x="145" y="4" width="3.7931" height="3.7931" rx="0.758621" fill="#989898" fill-opacity="0.22"/>
<rect x="145" y="10.069" width="3.7931" height="3.7931" rx="0.758621" fill="#989898" fill-opacity="0.22"/>
<rect x="145" y="16.1379" width="3.7931" height="3.7931" rx="0.758621" fill="#989898" fill-opacity="0.22"/>
<rect x="145" y="22.2069" width="3.7931" height="3.7931" rx="0.758621" fill="#989898" fill-opacity="0.22"/>
<rect x="143.25" y="0.25" width="27.5" height="99.5" stroke="#EDEDED" stroke-width="0.5"/>
</g>
<defs>
<clipPath id="clip0_408_1745">
<rect width="150" height="100" fill="white"/>
</clipPath>
</defs>
</svg>
